<svg width="207" height="84" viewBox="0 0 1069 308" fill="none" xmlns="http://www.w3.org/2000/svg">
<path fill-rule="evenodd" clip-rule="evenodd" d="M154 0C69.3 0 0 69.3 0 154C0 238.7 69.3 308 154 308C238.7 308 308 238.7 308 154C308 69.3 238.7 0 154 0ZM154 277.2C86.24 277.2 30.8 221.76 30.8 154C30.8 86.24 86.24 30.8 154 30.8C221.76 30.8 277.2 86.24 277.2 154C277.2 221.76 221.76 277.2 154 277.2ZM127.82 172.48L98.56 143.22L77 164.78L127.82 217.14L231 113.96L209.44 92.4L127.82 172.48ZM417.065 229.971C425.411 232.9 434.374 234.364 443.954 234.364C452.395 234.364 459.508 233.656 465.294 232.238C471.174 230.821 476.675 228.742 481.797 226.002V203.037C476.675 205.399 470.984 207.48 464.725 209.274C458.56 210.975 451.636 211.826 443.954 211.826C429.917 211.826 419.436 207.243 412.513 198.075C405.684 188.815 402.269 174.214 402.269 154.274C402.269 134.239 405.684 119.497 412.513 110.047C419.341 100.502 430.201 95.7296 445.092 95.7296C447.558 95.7296 450.166 95.966 452.916 96.4385C455.667 96.8165 458.465 97.3835 461.31 98.1395C464.156 98.801 466.906 99.6043 469.562 100.549C472.217 101.4 474.636 102.298 476.817 103.243L484.5 81.4126C479.757 79.05 473.83 77.0655 466.716 75.4589C459.698 73.8524 452.49 73.0491 445.092 73.0491C435.418 73.0491 426.36 74.5139 417.919 77.4435C409.478 80.3731 402.08 85.0982 395.725 91.6188C389.465 98.045 384.533 106.456 380.929 116.851C377.325 127.152 375.523 139.721 375.523 154.558C375.523 168.733 377.278 180.876 380.787 190.988C384.296 201.006 389.133 209.274 395.298 215.796C401.463 222.222 408.719 226.946 417.065 229.971ZM641.563 188.011C644.787 177.9 646.4 166.37 646.4 153.423C646.4 140.571 644.693 129.184 641.279 119.261C637.958 109.244 633.265 100.833 627.195 94.0288C621.218 87.1299 614.106 81.9323 605.854 78.4358C597.603 74.8447 588.592 73.0491 578.823 73.0491C568.296 73.0491 558.763 74.8447 550.228 78.4358C541.786 81.9323 534.625 87.1299 528.745 94.0288C522.866 100.833 518.312 109.244 515.087 119.261C511.958 129.184 510.392 140.571 510.392 153.423C510.392 166.37 512.052 177.9 515.372 188.011C518.786 198.029 523.482 206.487 529.456 213.385C535.527 220.189 542.687 225.387 550.939 228.979C559.191 232.57 568.201 234.364 577.969 234.364C588.498 234.364 597.982 232.57 606.422 228.979C614.864 225.387 622.025 220.189 627.905 213.385C633.881 206.487 638.433 198.029 641.563 188.011ZM546.813 198.075C540.363 188.059 537.139 173.174 537.139 153.423C537.139 133.673 540.316 118.93 546.67 109.196C553.121 99.3681 563.648 94.4539 578.255 94.4539C592.86 94.4539 603.387 99.3681 609.836 109.196C616.381 118.93 619.653 133.673 619.653 153.423C619.653 173.174 616.429 188.059 609.98 198.075C603.625 207.998 593.144 212.96 578.539 212.96C563.933 212.96 553.358 207.998 546.813 198.075ZM662.477 75.8842L715.826 231.53H748.69L802.04 75.8842H775.294L746.983 162.496C745.94 165.614 744.707 169.631 743.285 174.545C741.861 179.459 740.439 184.467 739.016 189.571C737.594 194.674 736.313 199.494 735.175 204.03C734.036 208.566 733.231 212.015 732.756 214.378H731.761C731.382 212.015 730.575 208.566 729.342 204.03C728.203 199.494 726.924 194.674 725.501 189.571C724.077 184.467 722.656 179.459 721.233 174.545C719.809 169.631 718.577 165.614 717.533 162.496L689.222 75.8842H662.477ZM860.086 229.12C868.716 232.617 878.249 234.364 888.681 234.364C893.519 234.364 897.976 234.176 902.054 233.798C906.227 233.42 910.211 232.805 914.005 231.955C917.893 231.104 921.639 230.018 925.244 228.695C928.942 227.372 932.689 225.813 936.482 224.017V201.053C932.784 202.754 929.133 204.313 925.528 205.73C921.925 207.054 918.179 208.188 914.29 209.132C910.495 209.984 906.511 210.645 902.338 211.117C898.261 211.59 893.803 211.826 888.966 211.826C874.644 211.826 863.832 207.527 856.529 198.927C849.321 190.327 845.479 176.907 845.005 158.669H943.454V142.65C943.454 132.255 942.032 122.805 939.186 114.299C936.436 105.7 932.452 98.3757 927.236 92.3275C922.019 86.185 915.665 81.4598 908.172 78.1522C900.68 74.7502 892.238 73.0491 882.849 73.0491C873.269 73.0491 864.496 74.8919 856.529 78.5775C848.657 82.2631 841.875 87.6497 836.184 94.7374C830.495 101.731 826.083 110.283 822.955 120.395C819.824 130.507 818.259 141.989 818.259 154.841C818.259 167.599 819.966 178.939 823.381 188.862C826.794 198.786 831.585 207.102 837.75 213.811C844.009 220.52 851.455 225.624 860.086 229.12ZM856.529 105.511C862.883 98.1395 871.467 94.4539 882.279 94.4539C888.159 94.4539 893.187 95.4934 897.359 97.5725C901.534 99.6516 904.947 102.581 907.604 106.361C910.353 110.141 912.345 114.725 913.579 120.111C914.906 125.404 915.569 131.263 915.569 137.689H845.575C846.617 123.608 850.27 112.882 856.529 105.511ZM1059.69 73.4744C1056.27 73.1909 1053.19 73.0491 1050.44 73.0491C1045.13 73.0491 1040.39 73.9469 1036.21 75.7424C1032.04 77.4435 1028.25 79.7588 1024.83 82.6884C1021.51 85.5234 1018.48 88.831 1015.73 92.6111C1013.07 96.3913 1010.56 100.313 1008.19 104.377H1007.05L1003.92 75.8842H982.862V231.53H1008.76V147.612C1008.76 139.957 1009.7 133.011 1011.6 126.774C1013.59 120.442 1016.34 115.055 1019.85 110.614C1023.46 106.078 1027.72 102.628 1032.66 100.266C1037.59 97.8088 1043.04 96.5802 1049.02 96.5802C1051.48 96.5802 1054.09 96.7693 1056.84 97.1473C1059.69 97.4307 1062.44 97.8088 1065.09 98.2813L1068.51 74.4666C1066.04 73.9941 1063.1 73.6634 1059.69 73.4744Z" fill="#03BF00"/>
</svg>
